<svg width="94" height="94" viewBox="0 0 94 94" fill="none" xmlns="http://www.w3.org/2000/svg">
<rect width="94" height="94" rx="24" fill="#4316F6"/>
<path d="M56.787 61.2392C56.2382 61.3755 55.7842 61.3553 55.425 61.1784C55.0552 60.9598 54.7011 60.6265 54.3625 60.1783L37.9819 33.3759C37.8444 33.1884 37.7491 32.9903 37.696 32.7816C37.6005 32.4062 37.6475 32.0618 37.8371 31.7485C38.0689 31.4247 38.3536 31.2209 38.6914 31.137L41.4776 30.4445C41.942 30.3291 42.3326 30.3651 42.6496 30.5525C42.9666 30.7399 43.5977 31.1804 43.7353 31.3679L56.3636 52.9607L57.9593 27.7456C57.9694 27.4326 58.0638 27.0986 58.2429 26.7436C58.4641 26.3781 58.849 26.1272 59.3978 25.9908L61.5508 25.4557C62.0996 25.3193 62.5589 25.3605 62.9287 25.5791C63.2986 25.7976 63.5417 26.0477 63.6582 26.3293L77.1334 47.7988L78.1588 22.4593C78.1479 22.2402 78.2372 21.974 78.4268 21.6608C78.6164 21.3475 79.1029 20.6132 79.7664 20.4647L81.2794 20.0755C81.6593 19.981 82.9223 20.2774 83.2393 20.4647C83.5563 20.6521 83.7626 20.9335 83.8582 21.309C83.9112 21.5176 83.9221 21.7367 83.8907 21.9663L82.2878 53.2381C82.2885 53.7701 82.1573 54.2242 81.8938 54.6002C81.662 54.9239 81.2505 55.1593 80.6596 55.3061L78.19 55.9199C77.6412 56.0562 77.145 56.0466 76.7014 55.8906C76.2894 55.6825 75.9563 55.3438 75.7023 54.8747L62.656 34.2968L61.0114 58.5258C60.97 59.0684 60.8175 59.5278 60.5542 59.9037C60.2801 60.238 59.8476 60.4785 59.2565 60.6254L56.787 61.2392Z" fill="#DADBF8"/>
<path d="M37.7673 74.1199C33.8045 75.1692 30.3206 75.4645 27.3159 75.0057C24.2988 74.502 21.8053 73.4978 19.835 71.9931C17.8981 70.4313 16.6622 68.9951 15.9853 66.8585C15.8876 66.4983 15.774 65.8947 16.0679 65.3917C16.3618 64.8886 17.7518 64.2783 18.1617 64.1698L19.1352 63.7862C19.6818 63.6414 21.0737 63.3391 21.8573 63.7862C22.2038 63.984 22.4715 64.2508 22.6602 64.5868C23.1808 65.6069 24.0204 66.5425 25.1787 67.3936C26.3704 68.1878 27.8611 68.7339 29.6506 69.032C31.4735 69.273 33.6603 69.0558 36.2111 68.3803C40.1284 67.343 42.8151 65.9079 44.2709 64.0748C45.76 62.1848 46.1934 60.0919 45.5709 57.7961C45.1438 56.2206 44.3009 55.0928 43.0426 54.4128C41.8175 53.6758 40.0991 53.19 37.8874 52.9554C35.6758 52.7209 32.8536 52.5757 29.4211 52.5197C25.8396 52.4549 22.8031 52.1493 20.3115 51.6028C17.82 51.0564 15.8018 50.0951 14.2571 48.719C12.7578 47.3309 11.6604 45.3539 10.9647 42.7879C10.3056 40.3572 10.3802 38.0214 11.1885 35.781C11.9847 33.4955 13.46 31.4644 15.6146 29.6877C17.8147 27.8989 20.6912 26.5341 24.2441 25.5932C27.0683 24.8454 29.6317 24.5767 31.9344 24.7871C34.2707 24.9404 36.3156 25.4604 38.0694 26.3469C39.811 27.1884 41.2415 28.2329 42.3608 29.4804C43.468 30.683 44.2274 31.9534 44.639 33.2918C44.7246 33.607 44.6961 33.9522 44.5537 34.3276C44.3993 34.658 44.0714 34.8896 43.5704 35.0223L39.9492 35.9812C39.6303 36.0656 40.4577 35.8949 39.3823 35.6698C39.9136 35.3572 38.8403 34.7745 38.5238 34.3276C37.7501 32.5543 35.5824 32.1197 33.4187 31.3418C31.255 30.5638 28.7156 30.5608 25.8003 31.3328C22.8395 32.1168 20.578 33.3187 19.0155 34.9387C17.4987 36.5465 17.0637 38.5434 17.7105 40.9293C18.1255 42.4598 18.9061 43.6282 20.0522 44.4344C21.1862 45.1955 22.7907 45.7115 24.8657 45.9822C26.9408 46.2529 29.5974 46.4179 32.8356 46.4771C36.7481 46.5025 40.0185 46.7703 42.6466 47.2805C45.2626 47.7457 47.343 48.6665 48.8877 50.0425C50.4659 51.3615 51.6029 53.304 52.2985 55.8699C53.0674 58.7059 52.9749 61.3357 52.021 63.7595C51.0548 66.1382 49.3518 68.2297 46.9117 70.0338C44.505 71.7808 41.4568 73.1428 37.7673 74.1199Z" fill="#DADBF8"/>
</svg>
