<svg width="94" height="94" viewBox="0 0 94 94" fill="none" xmlns="http://www.w3.org/2000/svg">
<rect x="3" y="3" width="88" height="88" rx="21" fill="#312073" stroke="#DADBF8" stroke-width="6"/>
<g clip-path="url(#clip0_2_6)">
<path d="M55.9935 60.275C55.4892 60.4018 55.072 60.383 54.7419 60.2185C54.4021 60.0153 54.0767 59.7053 53.7656 59.2886L38.7131 34.3671C38.5868 34.1927 38.4992 34.0085 38.4504 33.8145C38.3626 33.4654 38.4058 33.1452 38.5801 32.8539C38.7931 32.5528 39.0547 32.3633 39.3651 32.2853L41.9254 31.6414C42.3521 31.5341 42.7111 31.5675 43.0024 31.7418C43.2937 31.916 43.8736 32.3256 44 32.5L55.6044 52.5775L57.0707 29.1319C57.08 28.8409 57.1668 28.5303 57.3313 28.2002C57.5346 27.8604 57.8883 27.627 58.3926 27.5002L60.371 27.0027C60.8753 26.8759 61.2974 26.9141 61.6372 27.1174C61.9771 27.3206 62.2005 27.5531 62.3076 27.8149L74.6902 47.7778L75.6324 24.2166C75.6224 24.0128 75.7045 23.7653 75.8787 23.4741C76.0529 23.1828 76.5 22.5 77.1097 22.3619L78.5 22C78.8491 21.9122 80.0097 22.1877 80.301 22.3619C80.5923 22.5362 80.7819 22.7978 80.8697 23.147C80.9184 23.3409 80.9284 23.5446 80.8996 23.7581L79.4267 52.8354C79.4273 53.3301 79.3067 53.7523 79.0646 54.1019C78.8516 54.4029 78.4735 54.6218 77.9305 54.7583L75.6611 55.329C75.1568 55.4558 74.7008 55.4468 74.2932 55.3018C73.9146 55.1083 73.6085 54.7934 73.3751 54.3572L61.3866 35.2233L59.8754 57.7521C59.8373 58.2566 59.6972 58.6837 59.4552 59.0333C59.2034 59.3441 58.8059 59.5677 58.2628 59.7043L55.9935 60.275Z" fill="#DADBF8"/>
<path d="M38.5159 72.2518C34.8744 73.2275 31.673 73.5021 28.9119 73.0755C26.1395 72.6071 23.8481 71.6734 22.0376 70.2743C20.2578 68.8221 19.1221 67.4867 18.5 65.5C18.4103 65.1651 18.3059 64.6038 18.576 64.1361C18.846 63.6683 20.1233 63.1009 20.5 63L21.3945 62.6433C21.8968 62.5087 23.1759 62.2276 23.8959 62.6433C24.2143 62.8272 24.4603 63.0753 24.6337 63.3877C25.1121 64.3362 25.8836 65.2062 26.948 65.9976C28.0431 66.736 29.4129 67.2438 31.0573 67.521C32.7324 67.7451 34.7419 67.5431 37.0859 66.915C40.6856 65.9505 43.1544 64.6161 44.4922 62.9117C45.8606 61.1543 46.2588 59.2083 45.6868 57.0736C45.2943 55.6086 44.5198 54.56 43.3635 53.9277C42.2377 53.2424 40.6587 52.7907 38.6263 52.5726C36.594 52.3545 34.0006 52.2195 30.8464 52.1674C27.5553 52.1072 24.765 51.823 22.4755 51.3149C20.186 50.8068 18.3315 49.913 16.9119 48.6335C15.5342 47.3428 14.5258 45.5045 13.8865 43.1186C13.2808 40.8584 13.3494 38.6866 14.0922 36.6034C14.8238 34.4783 16.1795 32.5897 18.1594 30.9377C20.1811 29.2744 22.8244 28.0054 26.0892 27.1306C28.6844 26.4352 31.04 26.1853 33.156 26.381C35.3028 26.5236 37.1819 27.007 38.7935 27.8313C40.3939 28.6138 41.7084 29.585 42.737 30.745C43.7544 31.8631 44.4522 33.0444 44.8305 34.2889C44.9091 34.5819 44.8829 34.9029 44.7521 35.252C44.6102 35.5592 44.3089 35.7745 43.8485 35.8979L40.5209 36.7895C40.2279 36.868 40.9882 36.7093 40 36.5C40.4882 36.2093 39.5019 35.6675 39.2111 35.252C38.5001 33.6031 36.5082 33.199 34.5199 32.4757C32.5316 31.7523 30.1981 31.7495 27.5192 32.4673C24.7985 33.1963 22.7203 34.3139 21.2846 35.8202C19.8907 37.3152 19.491 39.1719 20.0854 41.3904C20.4667 42.8135 21.184 43.8999 22.2372 44.6495C23.2792 45.3572 24.7536 45.837 26.6604 46.0887C28.5672 46.3404 31.0084 46.4938 33.9841 46.5489C37.5794 46.5725 40.5846 46.8215 42.9996 47.2959C45.4035 47.7285 47.3152 48.5846 48.7347 49.8641C50.1849 51.0905 51.2297 52.8967 51.8689 55.2825C52.5755 57.9195 52.4905 60.3648 51.6139 62.6185C50.7261 64.8303 49.1611 66.775 46.9189 68.4525C44.7073 70.0769 41.9063 71.3433 38.5159 72.2518Z" fill="#DADBF8"/>
</g>
<defs>
<clipPath id="clip0_2_6">
<rect width="68" height="53" fill="white" transform="translate(13 21)"/>
</clipPath>
</defs>
</svg>
